<svg width="24" height="24" viewBox="0 0 24 24" fill="none" xmlns="http://www.w3.org/2000/svg">
<path fill-rule="evenodd" clip-rule="evenodd" d="M18.1459 5.63135C18.1459 7.79448 17.6084 10.6157 16.7816 10.1876C16.4434 11.2918 15.7336 12.2449 14.7725 12.8852C13.8114 13.5254 12.6584 13.8133 11.5092 13.6999C10.3599 13.5866 9.28538 13.0789 8.46793 12.2632C7.65048 11.4475 7.14054 10.3741 7.02469 9.2251C6.20407 7.78948 5.12782 4.9126 7.89469 2.6701C7.94469 2.65385 7.97469 2.51885 8.01969 2.3201C8.19094 1.56823 8.57032 -0.103023 10.9634 0.216352C12.8091 0.461977 18.1459 1.4151 18.1459 5.63198V5.63135ZM15.7672 6.9951C15.7672 6.9951 15.4847 7.82135 15.7497 8.74198C15.7463 9.72359 15.358 10.6647 14.6684 11.3633C13.9788 12.0619 13.0428 12.4622 12.0613 12.4783C11.0798 12.4944 10.1311 12.1251 9.41894 11.4495C8.70676 10.774 8.28787 9.84607 8.25219 8.8651C8.34282 8.52135 8.34282 7.93948 8.34219 7.2926C8.34157 6.12573 8.34032 4.74885 8.87469 4.1876C12.6178 6.68073 15.7672 6.9951 15.7672 6.9951Z" fill="#DADADA"/>
<path d="M5.125 19.5003C5.125 18.8241 5.48312 18.2316 6.02062 17.9016C6.00016 17.8238 5.98099 17.7456 5.96312 17.6672C5.86828 17.2402 5.79424 16.8089 5.74125 16.3747C5.68755 15.9587 5.65521 15.5402 5.64438 15.1209C3.00625 16.1566 0.75 17.9616 0.75 19.8566V23.2503H23.25V19.8566C23.25 18.0416 21.1812 16.3097 18.6887 15.2566V15.2741C18.7 15.6553 18.6787 16.0928 18.6375 16.5134C18.6 16.9034 18.5444 17.2922 18.4775 17.6253H18.875C18.991 17.6254 19.1048 17.6577 19.2035 17.7188C19.3021 17.7798 19.3819 17.8671 19.4338 17.9709L20.0588 19.2209C20.1025 19.3078 20.125 19.4034 20.125 19.5003V20.7503C20.125 20.9161 20.0592 21.075 19.9419 21.1923C19.8247 21.3095 19.6658 21.3753 19.5 21.3753H18.25V20.1253H18.875V19.6478L18.4888 18.8753H16.7612L16.375 19.6478V20.1253H17V21.3753H15.75C15.5842 21.3753 15.4253 21.3095 15.3081 21.1923C15.1908 21.075 15.125 20.9161 15.125 20.7503V19.5003C15.125 19.4034 15.1475 19.3078 15.1913 19.2209L15.8163 17.9709C15.8681 17.8671 15.9479 17.7798 16.0465 17.7188C16.1452 17.6577 16.259 17.6254 16.375 17.6253H17.1969C17.2106 17.5716 17.2244 17.5122 17.2381 17.4466C17.3006 17.1522 17.3563 16.7791 17.3938 16.3934C17.4313 16.0072 17.4487 15.6241 17.4394 15.3091C17.437 15.1786 17.4268 15.0483 17.4087 14.9191C17.395 14.8303 17.3812 14.7897 17.3787 14.7809C17.3781 14.7791 17.3775 14.7784 17.3787 14.7797L17.3806 14.7791C17.049 14.676 16.7135 14.5858 16.375 14.5084C16.0606 14.4366 15.7356 14.8691 15.5938 15.1397H8.25C8.23175 15.1049 8.21383 15.0699 8.19625 15.0347C8.06375 14.7709 7.90063 14.4453 7.625 14.5084C7.38438 14.5628 7.14375 14.6253 6.90313 14.6941C6.89537 14.8037 6.89204 14.9136 6.89313 15.0234C6.89563 15.3691 6.92875 15.7922 6.98187 16.2197C7.035 16.6459 7.10688 17.0609 7.18188 17.3884C7.20312 17.4828 7.22438 17.5678 7.24438 17.6409C7.6017 17.6879 7.93791 17.8369 8.21276 18.07C8.48762 18.3031 8.68947 18.6105 8.79416 18.9553C8.89884 19.3002 8.90192 19.6679 8.80303 20.0144C8.70414 20.361 8.50746 20.6717 8.23655 20.9094C7.96564 21.1471 7.63197 21.3016 7.27548 21.3546C6.919 21.4075 6.55481 21.3566 6.22651 21.208C5.89821 21.0593 5.61971 20.8192 5.42436 20.5163C5.229 20.2134 5.12507 19.8607 5.125 19.5003Z" fill="#DADADA"/>
<path d="M7.625 19.5001C7.625 19.8588 7.33625 20.1345 7 20.1345C6.66375 20.1345 6.375 19.8595 6.375 19.5001C6.375 19.1413 6.66375 18.8657 7 18.8657C7.33625 18.8657 7.625 19.1407 7.625 19.5001Z" fill="#DADADA"/>
</svg>
