<svg width="30" height="30" viewBox="0 0 30 30" fill="none" xmlns="http://www.w3.org/2000/svg">
<path d="M10.8352 9.84891C10.8355 11.0592 11.5207 12.6 12.3235 13.2023C12.5389 13.3639 12.3455 13.3167 12.6084 13.481C10.5714 14.0996 7.9207 15.15 6.7207 17.4V23.7H23.0332V17.4C21.8332 15.15 19.1825 14.0996 17.1455 13.481C18.5855 12.581 18.9184 11.3295 18.9188 9.84891C18.9141 7.8 17.2732 6 14.877 6C12.4807 6 10.8399 7.8 10.8352 9.84891Z" stroke="url(#paint0_linear_445_4613)" stroke-miterlimit="2.3" stroke-linecap="round"/>
<path fill-rule="evenodd" clip-rule="evenodd" d="M11.2812 8.25C11.8608 8.3028 11.8807 7.86655 13.469 7.96017C15.8412 8.1 15.0744 8.81719 16.6929 8.86437C17.9544 8.81719 17.9008 8.41572 18.4812 8.25C17.5212 7.2 16.5718 6.53197 14.8812 6C13.4412 6.45 12.2412 7.2 11.2812 8.25Z" fill="url(#paint1_linear_445_4613)" stroke="url(#paint2_linear_445_4613)"/>
<path d="M10.2617 23.4002V19.2002" stroke="url(#paint3_linear_445_4613)"/>
<path d="M19.4707 23.4002V19.2002" stroke="url(#paint4_linear_445_4613)"/>
<path d="M11.5209 13.7998C11.5209 13.7998 10.9553 15.6341 11.5209 16.1998C13.1049 17.7837 16.657 17.7837 18.241 16.1998C18.8066 15.6341 18.241 13.7998 18.241 13.7998" stroke="url(#paint5_linear_445_4613)"/>
<defs>
<linearGradient id="paint0_linear_445_4613" x1="6.7207" y1="6.90769" x2="24.6212" y2="10.1176" gradientUnits="userSpaceOnUse">
<stop stop-color="#4DC6FD"/>
<stop offset="1" stop-color="#00CCCB"/>
</linearGradient>
<linearGradient id="paint1_linear_445_4613" x1="11.2812" y1="6.14689" x2="17.8621" y2="9.36545" gradientUnits="userSpaceOnUse">
<stop stop-color="#4DC6FD"/>
<stop offset="1" stop-color="#00CCCB"/>
</linearGradient>
<linearGradient id="paint2_linear_445_4613" x1="11.2812" y1="6.14689" x2="17.8621" y2="9.36545" gradientUnits="userSpaceOnUse">
<stop stop-color="#4DC6FD"/>
<stop offset="1" stop-color="#00CCCB"/>
</linearGradient>
<linearGradient id="paint3_linear_445_4613" x1="10.2617" y1="19.4156" x2="11.3919" y2="19.4679" gradientUnits="userSpaceOnUse">
<stop stop-color="#4DC6FD"/>
<stop offset="1" stop-color="#00CCCB"/>
</linearGradient>
<linearGradient id="paint4_linear_445_4613" x1="19.4707" y1="19.4156" x2="20.6009" y2="19.4679" gradientUnits="userSpaceOnUse">
<stop stop-color="#4DC6FD"/>
<stop offset="1" stop-color="#00CCCB"/>
</linearGradient>
<linearGradient id="paint5_linear_445_4613" x1="11.2695" y1="13.9838" x2="18.3622" y2="16.7619" gradientUnits="userSpaceOnUse">
<stop stop-color="#4DC6FD"/>
<stop offset="1" stop-color="#00CCCB"/>
</linearGradient>
</defs>
</svg>
