<svg width="30" height="30" viewBox="0 0 30 30" fill="none" xmlns="http://www.w3.org/2000/svg">
<path fill-rule="evenodd" clip-rule="evenodd" d="M21.1459 8.63135C21.1459 10.7945 20.6084 13.6157 19.7816 13.1876C19.4434 14.2918 18.7336 15.2449 17.7725 15.8852C16.8114 16.5254 15.6584 16.8133 14.5092 16.6999C13.3599 16.5866 12.2854 16.0789 11.4679 15.2632C10.6505 14.4475 10.1405 13.3741 10.0247 12.2251C9.20407 10.7895 8.12782 7.9126 10.8947 5.6701C10.9447 5.65385 10.9747 5.51885 11.0197 5.3201C11.1909 4.56823 11.5703 2.89698 13.9634 3.21635C15.8091 3.46198 21.1459 4.4151 21.1459 8.63198V8.63135ZM18.7672 9.9951C18.7672 9.9951 18.4847 10.8214 18.7497 11.742C18.7463 12.7236 18.358 13.6647 17.6684 14.3633C16.9788 15.0619 16.0428 15.4622 15.0613 15.4783C14.0798 15.4944 13.1311 15.1251 12.4189 14.4495C11.7068 13.774 11.2879 12.8461 11.2522 11.8651C11.3428 11.5214 11.3428 10.9395 11.3422 10.2926C11.3416 9.12573 11.3403 7.74885 11.8747 7.1876C15.6178 9.68073 18.7672 9.9951 18.7672 9.9951Z" fill="#DADADA"/>
<path d="M8.125 22.5003C8.125 21.8241 8.48312 21.2316 9.02062 20.9016C9.00016 20.8238 8.98099 20.7456 8.96312 20.6672C8.86828 20.2402 8.79424 19.8089 8.74125 19.3747C8.68755 18.9587 8.65521 18.5402 8.64438 18.1209C6.00625 19.1566 3.75 20.9616 3.75 22.8566V26.2503H26.25V22.8566C26.25 21.0416 24.1812 19.3097 21.6887 18.2566V18.2741C21.7 18.6553 21.6787 19.0928 21.6375 19.5134C21.6 19.9034 21.5444 20.2922 21.4775 20.6253H21.875C21.991 20.6254 22.1048 20.6577 22.2035 20.7188C22.3021 20.7798 22.3819 20.8671 22.4338 20.9709L23.0588 22.2209C23.1025 22.3078 23.125 22.4034 23.125 22.5003V23.7503C23.125 23.9161 23.0592 24.075 22.9419 24.1923C22.8247 24.3095 22.6658 24.3753 22.5 24.3753H21.25V23.1253H21.875V22.6478L21.4888 21.8753H19.7612L19.375 22.6478V23.1253H20V24.3753H18.75C18.5842 24.3753 18.4253 24.3095 18.3081 24.1923C18.1908 24.075 18.125 23.9161 18.125 23.7503V22.5003C18.125 22.4034 18.1475 22.3078 18.1913 22.2209L18.8163 20.9709C18.8681 20.8671 18.9479 20.7798 19.0465 20.7188C19.1452 20.6577 19.259 20.6254 19.375 20.6253H20.1969C20.2106 20.5716 20.2244 20.5122 20.2381 20.4466C20.3006 20.1522 20.3563 19.7791 20.3938 19.3934C20.4313 19.0072 20.4487 18.6241 20.4394 18.3091C20.437 18.1786 20.4268 18.0483 20.4087 17.9191C20.395 17.8303 20.3812 17.7897 20.3787 17.7809C20.3781 17.7791 20.3775 17.7784 20.3787 17.7797L20.3806 17.7791C20.049 17.676 19.7135 17.5858 19.375 17.5084C19.0606 17.4366 18.7356 17.8691 18.5938 18.1397H11.25C11.2317 18.1049 11.2138 18.0699 11.1962 18.0347C11.0637 17.7709 10.9006 17.4453 10.625 17.5084C10.3844 17.5628 10.1438 17.6253 9.90313 17.6941C9.89537 17.8037 9.89204 17.9136 9.89313 18.0234C9.89563 18.3691 9.92875 18.7922 9.98187 19.2197C10.035 19.6459 10.1069 20.0609 10.1819 20.3884C10.2031 20.4828 10.2244 20.5678 10.2444 20.6409C10.6017 20.6879 10.9379 20.8369 11.2128 21.07C11.4876 21.3031 11.6895 21.6105 11.7942 21.9553C11.8988 22.3002 11.9019 22.6679 11.803 23.0144C11.7041 23.361 11.5075 23.6717 11.2365 23.9094C10.9656 24.1471 10.632 24.3016 10.2755 24.3546C9.919 24.4075 9.55481 24.3566 9.22651 24.208C8.89821 24.0593 8.61971 23.8192 8.42436 23.5163C8.229 23.2134 8.12507 22.8607 8.125 22.5003Z" fill="#DADADA"/>
<path d="M10.625 22.5001C10.625 22.8588 10.3363 23.1345 10 23.1345C9.66375 23.1345 9.375 22.8595 9.375 22.5001C9.375 22.1413 9.66375 21.8657 10 21.8657C10.3363 21.8657 10.625 22.1407 10.625 22.5001Z" fill="#DADADA"/>
</svg>
